<svg width="72" height="72" viewBox="0 0 72 72" fill="none" xmlns="http://www.w3.org/2000/svg">
<g clip-path="url(#clip0)">
<rect width="72" height="72" fill="url(#paint0_radial)"/>
<circle cx="36.2166" cy="36.2166" r="36.2166" fill="url(#paint1_radial)"/>
<circle cx="36.2166" cy="36.2166" r="51.2166" fill="url(#paint2_radial)"/>
<path fill-rule="evenodd" clip-rule="evenodd" d="M18.4424 36.2166C18.4424 29.1164 18.4424 25.5664 20.1343 23.0094C20.8898 21.8675 21.8677 20.8897 23.0095 20.1342C25.5665 18.4423 29.1166 18.4423 36.2167 18.4423C43.3168 18.4423 46.8669 18.4423 49.4239 20.1342C50.5657 20.8897 51.5436 21.8675 52.2991 23.0094C53.991 25.5664 53.991 29.1164 53.991 36.2166C53.991 43.3167 53.991 46.8667 52.2991 49.4237C51.5436 50.5656 50.5657 51.5434 49.4239 52.299C46.8669 53.9908 43.3168 53.9908 36.2167 53.9908C29.1166 53.9908 25.5665 53.9908 23.0095 52.299C21.8677 51.5434 20.8898 50.5656 20.1343 49.4237C18.4424 46.8667 18.4424 43.3167 18.4424 36.2166ZM45.4098 36.2166C45.4098 41.2987 41.2899 45.4185 36.2078 45.4185C31.1257 45.4185 27.0059 41.2987 27.0059 36.2166C27.0059 31.1345 31.1257 27.0146 36.2078 27.0146C41.2899 27.0146 45.4098 31.1345 45.4098 36.2166ZM36.2078 42.3053C39.5705 42.3053 42.2965 39.5793 42.2965 36.2166C42.2965 32.8539 39.5705 30.1279 36.2078 30.1279C32.8451 30.1279 30.1191 32.8539 30.1191 36.2166C30.1191 39.5793 32.8451 42.3053 36.2078 42.3053ZM45.7745 28.7142C46.9686 28.7142 47.9367 27.7462 47.9367 26.552C47.9367 25.3579 46.9686 24.3898 45.7745 24.3898C44.5803 24.3898 43.6123 25.3579 43.6123 26.552C43.6123 27.7462 44.5803 28.7142 45.7745 28.7142Z" fill="white"/>
</g>
<defs>
<radialGradient id="paint0_radial" cx="0" cy="0" r="1" gradientUnits="userSpaceOnUse" gradientTransform="translate(4.65977 70.4227) scale(91.4133)">
<stop offset="0.09" stop-color="#FF881B"/>
<stop offset="0.78" stop-color="#EE2584"/>
</radialGradient>
<radialGradient id="paint1_radial" cx="0" cy="0" r="1" gradientUnits="userSpaceOnUse" gradientTransform="translate(4.6878 70.8463) scale(91.9632)">
<stop offset="0.09" stop-color="#FF881B"/>
<stop offset="0.78" stop-color="#EE2584"/>
</radialGradient>
<radialGradient id="paint2_radial" cx="0" cy="0" r="1" gradientUnits="userSpaceOnUse" gradientTransform="translate(-32.1581 -7.62089) rotate(78.6806) scale(45.3793 187.055)">
<stop stop-color="#3771C8"/>
<stop offset="0.128" stop-color="#3771C8"/>
<stop offset="1" stop-color="#6600FF" stop-opacity="0"/>
</radialGradient>
<clipPath id="clip0">
<rect width="72" height="72" fill="white"/>
</clipPath>
</defs>
</svg>
