<?xml version="1.0" encoding="utf-8"?>
<svg viewBox="325.961 218.754 72 72" xmlns="http://www.w3.org/2000/svg">
  <rect width="72" height="72" x="325.961" y="218.754" style="fill: rgb(250, 250, 251);"/>
  <g transform="matrix(0.115458, 0, 0, 0.115458, 336.363495, 228.384003)" style="">
    <polygon points="60,134.911 60,380.089 196.194,257.5 &#9;"/>
    <polygon points="318.806,257.5 455,380.089 455,134.911 &#9;"/>
    <polygon points="257.5,272.318 432.579,114.729 82.421,114.729 &#9;"/>
    <polygon points="257.5,312.682 218.615,277.681 82.421,400.271 432.579,400.271 296.385,277.681 &#9;"/>
    <polygon points="395,54.729 0,54.729 0,340.271 30,340.271 30,84.729 395,84.729 &#9;"/>
  </g>
  <g transform="matrix(0.115458, 0, 0, 0.115458, 335.931183, 228.384003)" style=""/>
  <g transform="matrix(0.115458, 0, 0, 0.115458, 335.931183, 228.384003)" style=""/>
  <g transform="matrix(0.115458, 0, 0, 0.115458, 335.931183, 228.384003)" style=""/>
  <g transform="matrix(0.115458, 0, 0, 0.115458, 335.931183, 228.384003)" style=""/>
  <g transform="matrix(0.115458, 0, 0, 0.115458, 335.931183, 228.384003)" style=""/>
  <g transform="matrix(0.115458, 0, 0, 0.115458, 335.931183, 228.384003)" style=""/>
  <g transform="matrix(0.115458, 0, 0, 0.115458, 335.931183, 228.384003)" style=""/>
  <g transform="matrix(0.115458, 0, 0, 0.115458, 335.931183, 228.384003)" style=""/>
  <g transform="matrix(0.115458, 0, 0, 0.115458, 335.931183, 228.384003)" style=""/>
  <g transform="matrix(0.115458, 0, 0, 0.115458, 335.931183, 228.384003)" style=""/>
  <g transform="matrix(0.115458, 0, 0, 0.115458, 335.931183, 228.384003)" style=""/>
  <g transform="matrix(0.115458, 0, 0, 0.115458, 335.931183, 228.384003)" style=""/>
  <g transform="matrix(0.115458, 0, 0, 0.115458, 335.931183, 228.384003)" style=""/>
  <g transform="matrix(0.115458, 0, 0, 0.115458, 335.931183, 228.384003)" style=""/>
  <g transform="matrix(0.115458, 0, 0, 0.115458, 335.931183, 228.384003)" style=""/>
</svg>