<?xml version="1.0" encoding="utf-8"?>
<svg viewBox="270.878 209.507 72 72" xmlns="http://www.w3.org/2000/svg">
  <rect width="72" height="72" x="270.878" y="209.507" style=""/>
  <path class="st0" d="M 307.704 220.368 C 294.332 220.368 283.495 231.205 283.495 244.577 C 283.495 257.947 294.332 268.785 307.704 268.785 C 321.074 268.785 331.912 257.947 331.912 244.577 C 331.912 231.208 321.074 220.369 307.704 220.368 Z M 318.806 255.283 C 318.372 255.997 317.441 256.22 316.732 255.785 C 311.046 252.311 303.891 251.527 295.464 253.451 C 294.652 253.638 293.841 253.128 293.659 252.316 C 293.47 251.503 293.977 250.695 294.793 250.508 C 304.014 248.403 311.924 249.309 318.305 253.209 C 319.016 253.646 319.242 254.572 318.806 255.283 Z M 321.767 248.693 C 321.222 249.582 320.059 249.86 319.172 249.315 C 312.666 245.315 302.745 244.157 295.048 246.493 C 294.05 246.795 292.997 246.233 292.692 245.236 C 292.393 244.239 292.956 243.185 293.951 242.883 C 302.744 240.214 313.673 241.505 321.145 246.099 C 322.034 246.645 322.314 247.806 321.767 248.693 Z M 322.022 241.828 C 314.219 237.194 301.347 236.769 293.897 239.028 C 292.701 239.392 291.435 238.716 291.075 237.52 C 290.713 236.325 291.386 235.059 292.584 234.696 C 301.136 232.101 315.351 232.6 324.333 237.932 C 325.409 238.572 325.762 239.962 325.124 241.035 C 324.489 242.111 323.096 242.467 322.022 241.828 Z" style="fill: rgb(46, 189, 89);"/>
</svg>